<svg width="14" height="10" viewBox="0 0 14 10" fill="none" xmlns="http://www.w3.org/2000/svg">
<path d="M14 8.75V1.25C14 0.558333 13.4486 0 12.7654 0H1.23457C0.55144 0 0 0.558333 0 1.25V8.75C0 9.44167 0.55144 10 1.23457 10H12.7654C13.4486 10 14 9.44167 14 8.75ZM12.9218 1.15833C13.1934 1.43333 13.0453 1.71667 12.8971 1.85833L9.55556 4.95833L12.7654 8.34167C12.8642 8.45833 12.93 8.64167 12.8148 8.76667C12.7078 8.9 12.4609 8.89167 12.3539 8.80833L8.7572 5.7L6.99588 7.325L5.2428 5.7L1.64609 8.80833C1.53909 8.89167 1.29218 8.9 1.18519 8.76667C1.06996 8.64167 1.1358 8.45833 1.23457 8.34167L4.44444 4.95833L1.10288 1.85833C0.954732 1.71667 0.806584 1.43333 1.07819 1.15833C1.34979 0.883333 1.62963 1.01667 1.86008 1.21667L6.99588 5.41667L12.1399 1.21667C12.3704 1.01667 12.6502 0.883333 12.9218 1.15833Z" fill="#9FA1A6"/>
</svg>
