<svg width="20" height="20" viewBox="0 0 20 20" fill="none" xmlns="http://www.w3.org/2000/svg">
<path d="M6.72752 10.1617L3.51002 6.94416C2.24335 8.32499 1.76335 9.70833 1.75502 9.73666L1.66669 9.99999L1.75419 10.2633C1.77252 10.3192 3.68419 15.8333 10.045 15.8333C10.8192 15.8333 11.5242 15.7483 12.1717 15.6058L9.88335 13.3175C9.05942 13.2771 8.27998 12.9316 7.69667 12.3483C7.11337 11.765 6.76791 10.9856 6.72752 10.1617ZM10.045 4.16666C8.49919 4.16666 7.23252 4.50333 6.17669 4.99833L3.08919 1.91083L1.91085 3.08916L16.9109 18.0892L18.0892 16.9108L15.3409 14.1625C17.5392 12.535 18.3234 10.2983 18.335 10.2633L18.4225 9.99999L18.335 9.73666C18.3167 9.68083 16.4059 4.16666 10.045 4.16666ZM11.6334 10.455C11.7892 9.89083 11.6567 9.25583 11.2234 8.82166C10.79 8.38749 10.1542 8.25583 9.59002 8.41166L8.33335 7.15499C8.84832 6.83831 9.44048 6.66937 10.045 6.66666C11.8834 6.66666 13.3784 8.16166 13.3784 9.99999C13.3759 10.6044 13.2066 11.1964 12.8892 11.7108L11.6334 10.455Z" fill="#9FA1A6"/>
</svg>
