<svg width="14" height="15" viewBox="0 0 14 15" fill="none" xmlns="http://www.w3.org/2000/svg">
<path fill-rule="evenodd" clip-rule="evenodd" d="M2.33333 4.5C2.33333 3.30653 2.825 2.16193 3.70017 1.31802C4.57534 0.474106 5.76232 0 7 0C8.23768 0 9.42466 0.474106 10.2998 1.31802C11.175 2.16193 11.6667 3.30653 11.6667 4.5H12.4444C12.857 4.5 13.2527 4.65804 13.5444 4.93934C13.8361 5.22064 14 5.60218 14 6V13.5C14 13.8978 13.8361 14.2794 13.5444 14.5607C13.2527 14.842 12.857 15 12.4444 15H1.55556C1.143 15 0.747335 14.842 0.455612 14.5607C0.163888 14.2794 0 13.8978 0 13.5V6C0 5.60218 0.163888 5.22064 0.455612 4.93934C0.747335 4.65804 1.143 4.5 1.55556 4.5H2.33333ZM7 1.5C7.82512 1.5 8.61644 1.81607 9.19989 2.37868C9.78333 2.94129 10.1111 3.70435 10.1111 4.5H3.88889C3.88889 3.70435 4.21667 2.94129 4.80011 2.37868C5.38356 1.81607 6.17488 1.5 7 1.5ZM8.55556 9C8.55555 9.2633 8.48367 9.52196 8.34714 9.74998C8.21061 9.978 8.01425 10.1674 7.77778 10.299V11.25C7.77778 11.4489 7.69583 11.6397 7.54997 11.7803C7.40411 11.921 7.20628 12 7 12C6.79372 12 6.59589 11.921 6.45003 11.7803C6.30417 11.6397 6.22222 11.4489 6.22222 11.25V10.299C5.92569 10.1339 5.69394 9.87905 5.56291 9.57399C5.43188 9.26893 5.40889 8.9307 5.49752 8.61177C5.58614 8.29283 5.78143 8.011 6.05308 7.80999C6.32474 7.60898 6.65758 7.50001 7 7.5C7.41256 7.5 7.80822 7.65804 8.09994 7.93934C8.39167 8.22064 8.55556 8.60218 8.55556 9Z" fill="#9FA1A6"/>
</svg>
