<svg width="34" height="34" viewBox="0 0 34 34" fill="none" xmlns="http://www.w3.org/2000/svg">
<g filter="url(#filter0_d_101_29)">
<path d="M29.4102 6.98422C29.2587 6.79504 29.1026 6.60896 28.942 6.42616C26.3753 3.50453 22.8339 1.62108 18.9813 1.12859C15.1287 0.636106 11.2291 1.56838 8.01294 3.75078L12.6172 10.5675C14.1786 9.50799 16.0719 9.05537 17.9423 9.29447C19.8127 9.53357 21.5321 10.448 22.7782 11.8664C23.0575 12.1844 23.3087 12.5227 23.5305 12.8777L19.4549 16.9627H32.9991V3.38698L29.4102 6.98422Z" fill="#1C3AA9"/>
</g>
<g filter="url(#filter1_d_101_29)">
<path d="M16.9256 1.0006L3.38141 1.0006L6.92907 4.55651C4.27803 6.70393 2.37238 9.6548 1.51097 12.9848C0.536189 16.7531 0.965485 20.7483 2.71845 24.2221L10.0472 20.5066C9.19614 18.8201 8.98771 16.8804 9.46097 15.0509C9.93423 13.2214 11.0567 11.6276 12.6181 10.5681C12.6797 10.5263 12.7418 10.4854 12.8044 10.4455L16.9256 14.5763V1.0006Z" fill="#4285F4"/>
</g>
<g filter="url(#filter2_d_101_29)">
<path d="M1 17.1119H14.5442L10.4521 21.2136C11.3198 22.5607 12.5866 23.6117 14.0843 24.2123C15.835 24.9143 17.7809 24.9524 19.5577 24.3196C21.3345 23.6868 22.8201 22.4264 23.7363 20.7745L29.6599 26.697C27.792 29.1543 25.2426 31.0311 22.3076 32.0764C18.648 33.3799 14.6398 33.3013 11.0338 31.8554C8.49711 30.8382 6.28192 29.1936 4.58098 27.0983L1 30.6876L1 17.1119Z" fill="#FCFEFF"/>
</g>
<defs>
<filter id="filter0_d_101_29" x="7.11415" y="0.101213" width="26.7837" height="17.7603" filterUnits="userSpaceOnUse" color-interpolation-filters="sRGB">
<feFlood flood-opacity="0" result="BackgroundImageFix"/>
<feColorMatrix in="SourceAlpha" type="matrix" values="0 0 0 0 0 0 0 0 0 0 0 0 0 0 0 0 0 0 127 0" result="hardAlpha"/>
<feOffset/>
<feGaussianBlur stdDeviation="0.449393"/>
<feColorMatrix type="matrix" values="0 0 0 0 0 0 0 0 0 0 0 0 0 0 0 0 0 0 0.38 0"/>
<feBlend mode="normal" in2="BackgroundImageFix" result="effect1_dropShadow_101_29"/>
<feBlend mode="normal" in="SourceGraphic" in2="effect1_dropShadow_101_29" result="shape"/>
</filter>
<filter id="filter1_d_101_29" x="0.101213" y="0.101816" width="17.7232" height="25.0191" filterUnits="userSpaceOnUse" color-interpolation-filters="sRGB">
<feFlood flood-opacity="0" result="BackgroundImageFix"/>
<feColorMatrix in="SourceAlpha" type="matrix" values="0 0 0 0 0 0 0 0 0 0 0 0 0 0 0 0 0 0 127 0" result="hardAlpha"/>
<feOffset/>
<feGaussianBlur stdDeviation="0.449393"/>
<feColorMatrix type="matrix" values="0 0 0 0 0 0 0 0 0 0 0 0 0 0 0 0 0 0 0.38 0"/>
<feBlend mode="normal" in2="BackgroundImageFix" result="effect1_dropShadow_101_29"/>
<feBlend mode="normal" in="SourceGraphic" in2="effect1_dropShadow_101_29" result="shape"/>
</filter>
<filter id="filter2_d_101_29" x="0.101213" y="16.2131" width="30.4575" height="17.6857" filterUnits="userSpaceOnUse" color-interpolation-filters="sRGB">
<feFlood flood-opacity="0" result="BackgroundImageFix"/>
<feColorMatrix in="SourceAlpha" type="matrix" values="0 0 0 0 0 0 0 0 0 0 0 0 0 0 0 0 0 0 127 0" result="hardAlpha"/>
<feOffset/>
<feGaussianBlur stdDeviation="0.449393"/>
<feColorMatrix type="matrix" values="0 0 0 0 0 0 0 0 0 0 0 0 0 0 0 0 0 0 0.38 0"/>
<feBlend mode="normal" in2="BackgroundImageFix" result="effect1_dropShadow_101_29"/>
<feBlend mode="normal" in="SourceGraphic" in2="effect1_dropShadow_101_29" result="shape"/>
</filter>
</defs>
</svg>
