<svg width="20" height="20" viewBox="0 0 20 20" fill="none" xmlns="http://www.w3.org/2000/svg">
<path d="M9.99998 4.16667C3.63914 4.16667 1.72748 9.68084 1.70998 9.73667L1.62164 10L1.70914 10.2633C1.72748 10.3192 3.63914 15.8333 9.99998 15.8333C16.3608 15.8333 18.2725 10.3192 18.29 10.2633L18.3783 10L18.2908 9.73667C18.2725 9.68084 16.3608 4.16667 9.99998 4.16667ZM9.99998 13.3333C8.16164 13.3333 6.66664 11.8383 6.66664 10C6.66664 8.16167 8.16164 6.66667 9.99998 6.66667C11.8383 6.66667 13.3333 8.16167 13.3333 10C13.3333 11.8383 11.8383 13.3333 9.99998 13.3333Z" fill="#9FA1A6"/>
<path d="M9.99998 8.33333C9.09665 8.33333 8.33331 9.09666 8.33331 9.99999C8.33331 10.9033 9.09665 11.6667 9.99998 11.6667C10.9033 11.6667 11.6666 10.9033 11.6666 9.99999C11.6666 9.09666 10.9033 8.33333 9.99998 8.33333Z" fill="#9FA1A6"/>
</svg>
